<svg xmlns="http://www.w3.org/2000/svg" width="232" height="329" fill="none"><path stroke="url(#a)" stroke-opacity=".4" stroke-width="2" d="M0 328 225.7 221"/><path stroke="url(#b)" stroke-opacity=".4" stroke-width="2" d="m0 220.9 225.7-107.2"/><path stroke="url(#c)" stroke-opacity=".4" stroke-width="2" d="M0 113.7 225.7 6.5"/><circle cx="225.7" cy="6.3" r="6.3" fill="#fff" fill-opacity=".2" transform="rotate(-180 225.7 6.3)"/><circle cx="225.7" cy="6.3" r="3.2" fill="url(#d)" transform="rotate(-180 225.7 6.3)"/><circle cx="225.7" cy="113.9" r="6.3" fill="#fff" fill-opacity=".2" transform="rotate(-180 225.7 114)"/><circle cx="225.7" cy="113.9" r="3.2" fill="url(#e)" transform="rotate(-180 225.7 114)"/><circle cx="225.7" cy="220.5" r="6.3" fill="#fff" fill-opacity=".2" transform="rotate(-180 225.7 220.5)"/><circle cx="225.7" cy="220.5" r="3.2" fill="url(#f)" transform="rotate(-180 225.7 220.5)"/><defs><linearGradient id="a" x1="112.8" x2="112.8" y1="328.1" y2="220.9" gradientUnits="userSpaceOnUse"><stop stop-color="#91EBFF"/><stop offset="1" stop-color="#8497FF"/></linearGradient><linearGradient id="b" x1="112.8" x2="112.8" y1="220.9" y2="113.7" gradientUnits="userSpaceOnUse"><stop stop-color="#91EBFF"/><stop offset="1" stop-color="#8497FF"/></linearGradient><linearGradient id="c" x1="112.8" x2="112.8" y1="113.7" y2="6.5" gradientUnits="userSpaceOnUse"><stop stop-color="#91EBFF"/><stop offset="1" stop-color="#8497FF"/></linearGradient><linearGradient id="d" x1="223.5" x2="227.9" y1="4.1" y2="8.5" gradientUnits="userSpaceOnUse"><stop stop-color="#91EBFF"/><stop offset="1" stop-color="#8497FF"/></linearGradient><linearGradient id="e" x1="223.5" x2="227.9" y1="111.7" y2="116.1" gradientUnits="userSpaceOnUse"><stop stop-color="#91EBFF"/><stop offset="1" stop-color="#8497FF"/></linearGradient><linearGradient id="f" x1="223.5" x2="227.9" y1="218.2" y2="222.7" gradientUnits="userSpaceOnUse"><stop stop-color="#91EBFF"/><stop offset="1" stop-color="#8497FF"/></linearGradient></defs></svg>