<svg xmlns="http://www.w3.org/2000/svg" width="941" height="543" fill="none" viewBox="0 0 941 543"><rect width="3.626" height="3.626" fill="rgba(255,255,255,0.05)" rx="1.813" transform="matrix(0.866025 -0.5 0.866025 0.5 19.5151 290.522)"/><rect width="3.626" height="3.626" fill="rgba(255,255,255,0.05)" rx="1.813" transform="matrix(0.866025 -0.5 0.866025 0.5 51.5515 272.026)"/><rect width="3.626" height="3.626" fill="rgba(255,255,255,0.05)" rx="1.813" transform="matrix(0.866025 -0.5 0.866025 0.5 83.5879 253.53)"/><rect width="3.626" height="3.626" fill="rgba(255,255,255,0.05)" rx="1.813" transform="matrix(0.866025 -0.5 0.866025 0.5 115.624 235.034)"/><rect width="3.626" height="3.626" fill="rgba(255,255,255,0.05)" rx="1.813" transform="matrix(0.866025 -0.5 0.866025 0.5 147.66 216.538)"/><rect width="3.626" height="3.626" fill="rgba(255,255,255,0.05)" rx="1.813" transform="matrix(0.866025 -0.5 0.866025 0.5 179.697 198.042)"/><rect width="3.626" height="3.626" fill="rgba(255,255,255,0.05)" rx="1.813" transform="matrix(0.866025 -0.5 0.866025 0.5 211.733 179.545)"/><rect width="3.626" height="3.626" fill="rgba(255,255,255,0.05)" rx="1.813" transform="matrix(0.866025 -0.5 0.866025 0.5 243.769 161.049)"/><rect width="5.439" height="5.439" fill="rgba(255,255,255,0.05)" rx="2.72" transform="matrix(0.866025 -0.5 0.866025 0.5 274.235 142.553)"/><rect width="3.626" height="3.626" fill="rgba(255,255,255,0.05)" rx="1.813" transform="matrix(0.866025 -0.5 0.866025 0.5 307.842 124.057)"/><rect width="3.626" height="3.626" fill="rgba(255,255,255,0.05)" rx="1.813" transform="matrix(0.866025 -0.5 0.866025 0.5 339.878 105.561)"/><rect width="3.626" height="3.626" fill="rgba(255,255,255,0.05)" rx="1.813" transform="matrix(0.866025 -0.5 0.866025 0.5 371.914 87.0647)"/><rect width="3.626" height="3.626" fill="rgba(255,255,255,0.05)" rx="1.813" transform="matrix(0.866025 -0.5 0.866025 0.5 403.95 68.5686)"/><rect width="3.626" height="3.626" fill="rgba(255,255,255,0.05)" rx="1.813" transform="matrix(0.866025 -0.5 0.866025 0.5 435.987 50.0725)"/><rect width="3.626" height="3.626" fill="rgba(255,255,255,0.05)" rx="1.813" transform="matrix(0.866025 -0.5 0.866025 0.5 468.023 31.5762)"/><rect width="3.626" height="3.626" fill="rgba(255,255,255,0.05)" rx="1.813" transform="matrix(0.866025 -0.5 0.866025 0.5 500.059 13.0801)"/><rect width="3.626" height="3.626" fill="rgba(255,255,255,0.05)" rx="1.813" transform="matrix(0.866025 -0.5 0.866025 0.5 49.1238 307.616)"/><rect width="3.626" height="3.626" fill="rgba(255,255,255,0.05)" rx="1.813" transform="matrix(0.866025 -0.5 0.866025 0.5 81.1602 289.12)"/><rect width="3.626" height="3.626" fill="rgba(255,255,255,0.05)" rx="1.813" transform="matrix(0.866025 -0.5 0.866025 0.5 113.196 270.624)"/><rect width="3.626" height="3.626" fill="rgba(255,255,255,0.05)" rx="1.813" transform="matrix(0.866025 -0.5 0.866025 0.5 145.233 252.128)"/><rect width="3.626" height="3.626" fill="rgba(255,255,255,0.05)" rx="1.813" transform="matrix(0.866025 -0.5 0.866025 0.5 177.269 233.632)"/><rect width="3.626" height="3.626" fill="rgba(255,255,255,0.05)" rx="1.813" transform="matrix(0.866025 -0.5 0.866025 0.5 209.305 215.136)"/><rect width="5.439" height="5.439" fill="rgba(255,255,255,0.05)" rx="2.72" transform="matrix(0.866025 -0.5 0.866025 0.5 239.771 196.64)"/><rect width="7.253" height="7.253" fill="rgba(255,255,255,0.05)" rx="3.626" transform="matrix(0.866025 -0.5 0.866025 0.5 270.237 178.144)"/><rect width="7.253" height="7.253" fill="rgba(255,255,255,0.05)" rx="3.626" transform="matrix(0.866025 -0.5 0.866025 0.5 302.273 159.647)"/><rect width="7.253" height="7.253" fill="rgba(255,255,255,0.05)" rx="3.626" transform="matrix(0.866025 -0.5 0.866025 0.5 334.31 141.151)"/><rect width="5.439" height="5.439" fill="rgba(255,255,255,0.05)" rx="2.72" transform="matrix(0.866025 -0.5 0.866025 0.5 367.916 122.655)"/><rect width="3.626" height="3.626" fill="rgba(255,255,255,0.05)" rx="1.813" transform="matrix(0.866025 -0.5 0.866025 0.5 401.523 104.159)"/><rect width="3.626" height="3.626" fill="rgba(255,255,255,0.05)" rx="1.813" transform="matrix(0.866025 -0.5 0.866025 0.5 433.559 85.6628)"/><rect width="3.626" height="3.626" fill="rgba(255,255,255,0.05)" rx="1.813" transform="matrix(0.866025 -0.5 0.866025 0.5 465.595 67.1665)"/><rect width="3.626" height="3.626" fill="rgba(255,255,255,0.05)" rx="1.813" transform="matrix(0.866025 -0.5 0.866025 0.5 497.632 48.6704)"/><rect width="3.626" height="3.626" fill="rgba(255,255,255,0.05)" rx="1.813" transform="matrix(0.866025 -0.5 0.866025 0.5 529.668 30.1743)"/><rect width="3.626" height="3.626" fill="rgba(255,255,255,0.05)" rx="1.813" transform="matrix(0.866025 -0.5 0.866025 0.5 78.7332 324.712)"/><rect width="3.626" height="3.626" fill="rgba(255,255,255,0.05)" rx="1.813" transform="matrix(0.866025 -0.5 0.866025 0.5 110.77 306.216)"/><rect width="3.626" height="3.626" fill="rgba(255,255,255,0.05)" rx="1.813" transform="matrix(0.866025 -0.5 0.866025 0.5 142.806 287.72)"/><rect width="3.626" height="3.626" fill="rgba(255,255,255,0.05)" rx="1.813" transform="matrix(0.866025 -0.5 0.866025 0.5 174.842 269.224)"/><rect width="3.626" height="3.626" fill="rgba(255,255,255,0.05)" rx="1.813" transform="matrix(0.866025 -0.5 0.866025 0.5 206.878 250.728)"/><rect width="3.626" height="3.626" fill="rgba(255,255,255,0.05)" rx="1.813" transform="matrix(0.866025 -0.5 0.866025 0.5 238.915 232.231)"/><rect width="5.439" height="5.439" fill="rgba(255,255,255,0.05)" rx="2.72" transform="matrix(0.866025 -0.5 0.866025 0.5 269.381 213.735)"/><rect width="7.253" height="7.253" fill="rgba(255,255,255,0.05)" rx="3.626" transform="matrix(0.866025 -0.5 0.866025 0.5 299.847 195.239)"/><rect width="9.066" height="9.066" fill="rgba(255,255,255,0.05)" rx="3.626" transform="matrix(0.866025 -0.5 0.866025 0.5 330.313 176.743)"/><rect width="7.253" height="7.253" fill="rgba(255,255,255,0.05)" rx="3.626" transform="matrix(0.866025 -0.5 0.866025 0.5 363.919 158.247)"/><rect width="5.439" height="5.439" fill="rgba(255,255,255,0.05)" rx="2.72" transform="matrix(0.866025 -0.5 0.866025 0.5 397.526 139.751)"/><rect width="3.626" height="3.626" fill="rgba(255,255,255,0.05)" rx="1.813" transform="matrix(0.866025 -0.5 0.866025 0.5 431.132 121.255)"/><rect width="3.626" height="3.626" fill="rgba(255,255,255,0.05)" rx="1.813" transform="matrix(0.866025 -0.5 0.866025 0.5 463.168 102.759)"/><rect width="3.626" height="3.626" fill="rgba(255,255,255,0.05)" rx="1.813" transform="matrix(0.866025 -0.5 0.866025 0.5 495.205 84.2622)"/><rect width="3.626" height="3.626" fill="rgba(255,255,255,0.05)" rx="1.813" transform="matrix(0.866025 -0.5 0.866025 0.5 527.241 65.7661)"/><rect width="3.626" height="3.626" fill="rgba(255,255,255,0.05)" rx="1.813" transform="matrix(0.866025 -0.5 0.866025 0.5 559.277 47.27)"/><rect width="3.626" height="3.626" fill="rgba(255,255,255,0.05)" rx="1.813" transform="matrix(0.866025 -0.5 0.866025 0.5 108.343 341.806)"/><rect width="3.626" height="3.626" fill="rgba(255,255,255,0.05)" rx="1.813" transform="matrix(0.866025 -0.5 0.866025 0.5 140.379 323.31)"/><rect width="3.626" height="3.626" fill="rgba(255,255,255,0.05)" rx="1.813" transform="matrix(0.866025 -0.5 0.866025 0.5 172.415 304.814)"/><rect width="3.626" height="3.626" fill="rgba(255,255,255,0.05)" rx="1.813" transform="matrix(0.866025 -0.5 0.866025 0.5 204.451 286.318)"/><rect width="5.439" height="5.439" fill="rgba(255,255,255,0.05)" rx="2.72" transform="matrix(0.866025 -0.5 0.866025 0.5 234.917 267.822)"/><rect width="5.439" height="5.439" fill="rgba(255,255,255,0.05)" rx="2.72" transform="matrix(0.866025 -0.5 0.866025 0.5 266.954 249.326)"/><rect width="7.253" height="7.253" fill="rgba(255,255,255,0.05)" rx="3.626" transform="matrix(0.866025 -0.5 0.866025 0.5 297.42 230.83)"/><rect width="9.066" height="9.066" fill="rgba(255,255,255,0.05)" rx="3.626" transform="matrix(0.866025 -0.5 0.866025 0.5 327.886 212.333)"/><rect width="10.879" height="10.879" fill="rgba(255,255,255,0.05)" rx="2.901" transform="matrix(0.866025 -0.5 0.866025 0.5 358.352 193.837)"/><rect width="9.066" height="9.066" fill="rgba(255,255,255,0.05)" rx="3.626" transform="matrix(0.866025 -0.5 0.866025 0.5 391.958 175.341)"/><rect width="7.253" height="7.253" fill="rgba(255,255,255,0.05)" rx="3.626" transform="matrix(0.866025 -0.5 0.866025 0.5 425.565 156.845)"/><rect width="5.439" height="5.439" fill="rgba(255,255,255,0.05)" rx="2.72" transform="matrix(0.866025 -0.5 0.866025 0.5 459.171 138.349)"/><rect width="5.439" height="5.439" fill="rgba(255,255,255,0.05)" rx="2.72" transform="matrix(0.866025 -0.5 0.866025 0.5 491.208 119.853)"/><rect width="3.626" height="3.626" fill="rgba(255,255,255,0.05)" rx="1.813" transform="matrix(0.866025 -0.5 0.866025 0.5 524.814 101.356)"/><rect width="3.626" height="3.626" fill="rgba(255,255,255,0.05)" rx="1.813" transform="matrix(0.866025 -0.5 0.866025 0.5 556.851 82.8604)"/><rect width="3.626" height="3.626" fill="rgba(255,255,255,0.05)" rx="1.813" transform="matrix(0.866025 -0.5 0.866025 0.5 588.887 64.364)"/><rect width="3.626" height="3.626" fill="rgba(255,255,255,0.05)" rx="1.813" transform="matrix(0.866025 -0.5 0.866025 0.5 137.951 358.9)"/><rect width="5.439" height="5.439" fill="rgba(255,255,255,0.05)" rx="2.72" transform="matrix(0.866025 -0.5 0.866025 0.5 168.417 340.404)"/><rect width="5.439" height="5.439" fill="rgba(255,255,255,0.05)" rx="2.72" transform="matrix(0.866025 -0.5 0.866025 0.5 200.453 321.908)"/><rect width="7.253" height="7.253" fill="rgba(255,255,255,0.05)" rx="3.626" transform="matrix(0.866025 -0.5 0.866025 0.5 230.919 303.412)"/><rect width="7.253" height="7.253" fill="rgba(255,255,255,0.05)" rx="3.626" transform="matrix(0.866025 -0.5 0.866025 0.5 262.956 284.916)"/><rect width="7.253" height="7.253" fill="rgba(255,255,255,0.05)" rx="3.626" transform="matrix(0.866025 -0.5 0.866025 0.5 294.992 266.42)"/><rect width="9.066" height="9.066" fill="rgba(255,255,255,0.05)" rx="3.626" transform="matrix(0.866025 -0.5 0.866025 0.5 325.458 247.924)"/><rect width="10.879" height="10.879" fill="rgba(255,255,255,0.05)" rx="2.901" transform="matrix(0.866025 -0.5 0.866025 0.5 355.924 229.427)"/><rect width="12.692" height="12.692" fill="rgba(255,255,255,0.05)" rx="2.176" transform="matrix(0.866025 -0.5 0.866025 0.5 386.39 210.931)"/><rect width="10.879" height="10.879" fill="rgba(255,255,255,0.05)" rx="2.901" transform="matrix(0.866025 -0.5 0.866025 0.5 419.997 192.435)"/><rect width="9.066" height="9.066" fill="rgba(255,255,255,0.05)" rx="3.626" transform="matrix(0.866025 -0.5 0.866025 0.5 453.603 173.939)"/><rect width="7.253" height="7.253" fill="rgba(255,255,255,0.05)" rx="3.626" transform="matrix(0.866025 -0.5 0.866025 0.5 487.209 155.443)"/><rect width="7.253" height="7.253" fill="rgba(255,255,255,0.05)" rx="3.626" transform="matrix(0.866025 -0.5 0.866025 0.5 519.246 136.947)"/><rect width="7.253" height="7.253" fill="rgba(255,255,255,0.05)" rx="3.626" transform="matrix(0.866025 -0.5 0.866025 0.5 551.282 118.45)"/><rect width="5.439" height="5.439" fill="rgba(255,255,255,0.05)" rx="2.72" transform="matrix(0.866025 -0.5 0.866025 0.5 584.889 99.9543)"/><rect width="3.626" height="3.626" fill="rgba(255,255,255,0.05)" rx="1.813" transform="matrix(0.866025 -0.5 0.866025 0.5 618.495 81.4583)"/><rect width="3.626" height="3.626" fill="rgba(255,255,255,0.05)" rx="1.813" transform="matrix(0.866025 -0.5 0.866025 0.5 167.56 375.997)"/><rect width="5.439" height="5.439" fill="rgba(255,255,255,0.05)" rx="2.72" transform="matrix(0.866025 -0.5 0.866025 0.5 198.026 357.5)"/><rect width="5.439" height="5.439" fill="rgba(255,255,255,0.05)" rx="2.72" transform="matrix(0.866025 -0.5 0.866025 0.5 230.062 339.004)"/><rect width="7.253" height="7.253" fill="rgba(255,255,255,0.05)" rx="3.626" transform="matrix(0.866025 -0.5 0.866025 0.5 260.528 320.508)"/><rect width="9.066" height="9.066" fill="rgba(255,255,255,0.05)" rx="3.626" transform="matrix(0.866025 -0.5 0.866025 0.5 290.994 302.012)"/><rect width="9.066" height="9.066" fill="rgba(255,255,255,0.05)" rx="3.626" transform="matrix(0.866025 -0.5 0.866025 0.5 323.03 283.516)"/><rect width="10.879" height="10.879" fill="rgba(255,255,255,0.05)" rx="2.901" transform="matrix(0.866025 -0.5 0.866025 0.5 353.496 265.02)"/><rect width="12.692" height="12.692" fill="rgba(255,255,255,0.05)" rx="2.176" transform="matrix(0.866025 -0.5 0.866025 0.5 383.962 246.524)"/><rect width="14.505" height="14.505" fill="rgba(255,255,255,0.05)" rx="1.451" transform="matrix(0.866025 -0.5 0.866025 0.5 414.428 228.028)"/><rect width="12.692" height="12.692" fill="rgba(255,255,255,0.05)" rx="2.176" transform="matrix(0.866025 -0.5 0.866025 0.5 448.035 209.531)"/><rect width="10.879" height="10.879" fill="rgba(255,255,255,0.05)" rx="2.901" transform="matrix(0.866025 -0.5 0.866025 0.5 481.641 191.035)"/><rect width="9.066" height="9.066" fill="rgba(255,255,255,0.05)" rx="3.626" transform="matrix(0.866025 -0.5 0.866025 0.5 515.248 172.539)"/><rect width="9.066" height="9.066" fill="rgba(255,255,255,0.05)" rx="3.626" transform="matrix(0.866025 -0.5 0.866025 0.5 547.284 154.043)"/><rect width="7.253" height="7.253" fill="rgba(255,255,255,0.05)" rx="3.626" transform="matrix(0.866025 -0.5 0.866025 0.5 580.891 135.547)"/><rect width="5.439" height="5.439" fill="rgba(255,255,255,0.05)" rx="2.72" transform="matrix(0.866025 -0.5 0.866025 0.5 614.497 117.051)"/><rect width="3.626" height="3.626" fill="rgba(255,255,255,0.05)" rx="1.813" transform="matrix(0.866025 -0.5 0.866025 0.5 648.104 98.5544)"/><rect width="3.626" height="3.626" fill="rgba(255,255,255,0.05)" rx="1.813" transform="matrix(0.866025 -0.5 0.866025 0.5 197.169 393.091)"/><rect width="5.439" height="5.439" fill="rgba(255,255,255,0.05)" rx="2.72" transform="matrix(0.866025 -0.5 0.866025 0.5 227.635 374.595)"/><rect width="7.253" height="7.253" fill="rgba(255,255,255,0.05)" rx="3.626" transform="matrix(0.866025 -0.5 0.866025 0.5 258.101 356.099)"/><rect width="9.066" height="9.066" fill="rgba(255,255,255,0.05)" rx="3.626" transform="matrix(0.866025 -0.5 0.866025 0.5 288.567 337.603)"/><rect width="10.879" height="10.879" fill="rgba(255,255,255,0.05)" rx="2.901" transform="matrix(0.866025 -0.5 0.866025 0.5 319.033 319.106)"/><rect width="12.692" height="12.692" fill="rgba(255,255,255,0.05)" rx="2.176" transform="matrix(0.866025 -0.5 0.866025 0.5 349.499 300.61)"/><rect width="14.505" height="14.505" fill="rgba(255,255,255,0.05)" rx="1.451" transform="matrix(0.866025 -0.5 0.866025 0.5 379.965 282.114)"/><rect width="14.505" height="14.505" fill="rgba(255,255,255,0.05)" rx="1.451" transform="matrix(0.866025 -0.5 0.866025 0.5 412.001 263.618)"/><rect width="16.318" height="16.318" fill="rgba(255,255,255,0.05)" rx=".725" transform="matrix(0.866025 -0.5 0.866025 0.5 442.468 245.122)"/><rect width="14.505" height="14.505" fill="rgba(255,255,255,0.05)" rx="1.451" transform="matrix(0.866025 -0.5 0.866025 0.5 476.074 226.625)"/><rect width="14.505" height="14.505" fill="rgba(255,255,255,0.05)" rx="1.451" transform="matrix(0.866025 -0.5 0.866025 0.5 508.11 208.129)"/><rect width="12.692" height="12.692" fill="rgba(255,255,255,0.05)" rx="2.176" transform="matrix(0.866025 -0.5 0.866025 0.5 541.717 189.633)"/><rect width="10.879" height="10.879" fill="rgba(255,255,255,0.05)" rx="2.901" transform="matrix(0.866025 -0.5 0.866025 0.5 575.323 171.137)"/><rect width="9.066" height="9.066" fill="rgba(255,255,255,0.05)" rx="3.626" transform="matrix(0.866025 -0.5 0.866025 0.5 608.93 152.641)"/><rect width="7.253" height="7.253" fill="rgba(255,255,255,0.05)" rx="3.626" transform="matrix(0.866025 -0.5 0.866025 0.5 642.536 134.145)"/><rect width="3.626" height="3.626" fill="rgba(255,255,255,0.05)" rx="1.813" transform="matrix(0.866025 -0.5 0.866025 0.5 677.713 115.649)"/><rect width="3.626" height="3.626" fill="rgba(255,255,255,0.05)" rx="1.813" transform="matrix(0.866025 -0.5 0.866025 0.5 226.779 410.185)"/><rect width="5.439" height="5.439" fill="rgba(255,255,255,0.05)" rx="2.72" transform="matrix(0.866025 -0.5 0.866025 0.5 257.248 391.686)"/><rect width="7.253" height="7.253" fill="rgba(255,255,255,0.05)" rx="3.626" transform="matrix(0.866025 -0.5 0.866025 0.5 287.718 373.188)"/><rect width="9.066" height="9.066" fill="rgba(255,255,255,0.05)" rx="3.626" transform="matrix(0.866025 -0.5 0.866025 0.5 318.188 354.689)"/><rect width="10.879" height="10.879" fill="rgba(255,255,255,0.05)" rx="2.901" transform="matrix(0.866025 -0.5 0.866025 0.5 348.658 336.191)"/><rect width="12.692" height="12.692" fill="rgba(255,255,255,0.05)" rx="2.176" transform="matrix(0.866025 -0.5 0.866025 0.5 379.128 317.693)"/><rect width="14.505" height="14.505" fill="rgba(255,255,255,0.05)" rx="1.451" transform="matrix(0.866025 -0.5 0.866025 0.5 409.598 299.194)"/><rect width="16.318" height="16.318" fill="rgba(255,255,255,0.05)" rx=".725" transform="matrix(0.866025 -0.5 0.866025 0.5 440.068 280.696)"/><rect width="18.064" height="18.132" fill="rgba(255,255,255,0.05)" transform="matrix(0.866025 -0.5 0.866025 0.5 470.538 262.197)"/><rect width="16.318" height="16.318" fill="rgba(255,255,255,0.05)" rx=".725" transform="matrix(0.866025 -0.5 0.866025 0.5 504.09 243.733)"/><rect width="14.505" height="14.505" fill="rgba(255,255,255,0.05)" rx="1.451" transform="matrix(0.866025 -0.5 0.866025 0.5 537.7 225.234)"/><rect width="12.692" height="12.692" fill="rgba(255,255,255,0.05)" rx="2.176" transform="matrix(0.866025 -0.5 0.866025 0.5 571.311 206.736)"/><rect width="10.879" height="10.879" fill="rgba(255,255,255,0.05)" rx="2.901" transform="matrix(0.866025 -0.5 0.866025 0.5 604.921 188.238)"/><rect width="9.066" height="9.066" fill="rgba(255,255,255,0.05)" rx="3.626" transform="matrix(0.866025 -0.5 0.866025 0.5 638.531 169.739)"/><rect width="7.253" height="7.253" fill="rgba(255,255,255,0.05)" rx="3.626" transform="matrix(0.866025 -0.5 0.866025 0.5 672.142 151.241)"/><rect width="3.626" height="3.626" fill="rgba(255,255,255,0.05)" rx="1.813" transform="matrix(0.866025 -0.5 0.866025 0.5 707.323 132.742)"/><rect width="3.626" height="3.626" fill="rgba(255,255,255,0.05)" rx="1.813" transform="matrix(0.866025 -0.5 0.866025 0.5 256.387 427.281)"/><rect width="5.439" height="5.439" fill="rgba(255,255,255,0.05)" rx="2.72" transform="matrix(0.866025 -0.5 0.866025 0.5 286.853 408.785)"/><rect width="7.253" height="7.253" fill="rgba(255,255,255,0.05)" rx="3.626" transform="matrix(0.866025 -0.5 0.866025 0.5 317.319 390.289)"/><rect width="9.066" height="9.066" fill="rgba(255,255,255,0.05)" rx="3.626" transform="matrix(0.866025 -0.5 0.866025 0.5 347.785 371.792)"/><rect width="10.879" height="10.879" fill="rgba(255,255,255,0.05)" rx="2.901" transform="matrix(0.866025 -0.5 0.866025 0.5 378.251 353.296)"/><rect width="12.692" height="12.692" fill="rgba(255,255,255,0.05)" rx="2.176" transform="matrix(0.866025 -0.5 0.866025 0.5 408.717 334.8)"/><rect width="14.505" height="14.505" fill="rgba(255,255,255,0.05)" rx="1.451" transform="matrix(0.866025 -0.5 0.866025 0.5 439.183 316.304)"/><rect width="14.505" height="14.505" fill="rgba(255,255,255,0.05)" rx="1.451" transform="matrix(0.866025 -0.5 0.866025 0.5 471.219 297.808)"/><rect width="16.318" height="16.318" fill="rgba(255,255,255,0.05)" rx=".725" transform="matrix(0.866025 -0.5 0.866025 0.5 501.686 279.312)"/><rect width="14.505" height="14.505" fill="rgba(255,255,255,0.05)" rx="1.451" transform="matrix(0.866025 -0.5 0.866025 0.5 535.292 260.815)"/><rect width="14.505" height="14.505" fill="rgba(255,255,255,0.05)" rx="1.451" transform="matrix(0.866025 -0.5 0.866025 0.5 567.328 242.319)"/><rect width="12.692" height="12.692" fill="rgba(255,255,255,0.05)" rx="2.176" transform="matrix(0.866025 -0.5 0.866025 0.5 600.935 223.823)"/><rect width="10.879" height="10.879" fill="rgba(255,255,255,0.05)" rx="2.901" transform="matrix(0.866025 -0.5 0.866025 0.5 634.541 205.327)"/><rect width="9.066" height="9.066" fill="rgba(255,255,255,0.05)" rx="3.626" transform="matrix(0.866025 -0.5 0.866025 0.5 668.148 186.831)"/><rect width="7.253" height="7.253" fill="rgba(255,255,255,0.05)" rx="3.626" transform="matrix(0.866025 -0.5 0.866025 0.5 701.754 168.335)"/><rect width="3.626" height="3.626" fill="rgba(255,255,255,0.05)" rx="1.813" transform="matrix(0.866025 -0.5 0.866025 0.5 736.931 149.838)"/><rect width="3.626" height="3.626" fill="rgba(255,255,255,0.05)" rx="1.813" transform="matrix(0.866025 -0.5 0.866025 0.5 285.996 444.375)"/><rect width="5.439" height="5.439" fill="rgba(255,255,255,0.05)" rx="2.72" transform="matrix(0.866025 -0.5 0.866025 0.5 316.462 425.879)"/><rect width="5.439" height="5.439" fill="rgba(255,255,255,0.05)" rx="2.72" transform="matrix(0.866025 -0.5 0.866025 0.5 348.498 407.383)"/><rect width="7.253" height="7.253" fill="rgba(255,255,255,0.05)" rx="3.626" transform="matrix(0.866025 -0.5 0.866025 0.5 378.964 388.886)"/><rect width="9.066" height="9.066" fill="rgba(255,255,255,0.05)" rx="3.626" transform="matrix(0.866025 -0.5 0.866025 0.5 409.43 370.39)"/><rect width="9.066" height="9.066" fill="rgba(255,255,255,0.05)" rx="3.626" transform="matrix(0.866025 -0.5 0.866025 0.5 441.466 351.894)"/><rect width="10.879" height="10.879" fill="rgba(255,255,255,0.05)" rx="2.901" transform="matrix(0.866025 -0.5 0.866025 0.5 471.932 333.398)"/><rect width="12.692" height="12.692" fill="rgba(255,255,255,0.05)" rx="2.176" transform="matrix(0.866025 -0.5 0.866025 0.5 502.398 314.902)"/><rect width="14.505" height="14.505" fill="rgba(255,255,255,0.05)" rx="1.451" transform="matrix(0.866025 -0.5 0.866025 0.5 532.864 296.406)"/><rect width="12.692" height="12.692" fill="rgba(255,255,255,0.05)" rx="2.176" transform="matrix(0.866025 -0.5 0.866025 0.5 566.471 277.91)"/><rect width="10.879" height="10.879" fill="rgba(255,255,255,0.05)" rx="2.901" transform="matrix(0.866025 -0.5 0.866025 0.5 600.077 259.413)"/><rect width="9.066" height="9.066" fill="rgba(255,255,255,0.05)" rx="3.626" transform="matrix(0.866025 -0.5 0.866025 0.5 633.684 240.917)"/><rect width="9.066" height="9.066" fill="rgba(255,255,255,0.05)" rx="3.626" transform="matrix(0.866025 -0.5 0.866025 0.5 665.72 222.421)"/><rect width="7.253" height="7.253" fill="rgba(255,255,255,0.05)" rx="3.626" transform="matrix(0.866025 -0.5 0.866025 0.5 699.327 203.925)"/><rect width="5.439" height="5.439" fill="rgba(255,255,255,0.05)" rx="2.72" transform="matrix(0.866025 -0.5 0.866025 0.5 732.933 185.429)"/><rect width="3.626" height="3.626" fill="rgba(255,255,255,0.05)" rx="1.813" transform="matrix(0.866025 -0.5 0.866025 0.5 766.54 166.933)"/><rect width="3.626" height="3.626" fill="rgba(255,255,255,0.05)" rx="1.813" transform="matrix(0.866025 -0.5 0.866025 0.5 315.605 461.471)"/><rect width="5.439" height="5.439" fill="rgba(255,255,255,0.05)" rx="2.72" transform="matrix(0.866025 -0.5 0.866025 0.5 346.071 442.974)"/><rect width="5.439" height="5.439" fill="rgba(255,255,255,0.05)" rx="2.72" transform="matrix(0.866025 -0.5 0.866025 0.5 378.107 424.478)"/><rect width="7.253" height="7.253" fill="rgba(255,255,255,0.05)" rx="3.626" transform="matrix(0.866025 -0.5 0.866025 0.5 408.573 405.982)"/><rect width="7.253" height="7.253" fill="rgba(255,255,255,0.05)" rx="3.626" transform="matrix(0.866025 -0.5 0.866025 0.5 440.61 387.486)"/><rect width="7.253" height="7.253" fill="rgba(255,255,255,0.05)" rx="3.626" transform="matrix(0.866025 -0.5 0.866025 0.5 472.646 368.99)"/><rect width="9.066" height="9.066" fill="rgba(255,255,255,0.05)" rx="3.626" transform="matrix(0.866025 -0.5 0.866025 0.5 503.112 350.494)"/><rect width="10.879" height="10.879" fill="rgba(255,255,255,0.05)" rx="2.901" transform="matrix(0.866025 -0.5 0.866025 0.5 533.578 331.998)"/><rect width="12.692" height="12.692" fill="rgba(255,255,255,0.05)" rx="2.176" transform="matrix(0.866025 -0.5 0.866025 0.5 564.044 313.501)"/><rect width="10.879" height="10.879" fill="rgba(255,255,255,0.05)" rx="2.901" transform="matrix(0.866025 -0.5 0.866025 0.5 597.65 295.005)"/><rect width="9.066" height="9.066" fill="rgba(255,255,255,0.05)" rx="3.626" transform="matrix(0.866025 -0.5 0.866025 0.5 631.257 276.509)"/><rect width="7.253" height="7.253" fill="rgba(255,255,255,0.05)" rx="3.626" transform="matrix(0.866025 -0.5 0.866025 0.5 664.864 258.013)"/><rect width="7.253" height="7.253" fill="rgba(255,255,255,0.05)" rx="3.626" transform="matrix(0.866025 -0.5 0.866025 0.5 696.9 239.517)"/><rect width="7.253" height="7.253" fill="rgba(255,255,255,0.05)" rx="3.626" transform="matrix(0.866025 -0.5 0.866025 0.5 728.936 221.021)"/><rect width="5.439" height="5.439" fill="rgba(255,255,255,0.05)" rx="2.72" transform="matrix(0.866025 -0.5 0.866025 0.5 762.543 202.524)"/><rect width="3.626" height="3.626" fill="rgba(255,255,255,0.05)" rx="1.813" transform="matrix(0.866025 -0.5 0.866025 0.5 796.149 184.028)"/><rect width="3.626" height="3.626" fill="rgba(255,255,255,0.05)" rx="1.813" transform="matrix(0.866025 -0.5 0.866025 0.5 345.214 478.565)"/><rect width="3.626" height="3.626" fill="rgba(255,255,255,0.05)" rx="1.813" transform="matrix(0.866025 -0.5 0.866025 0.5 377.251 460.069)"/><rect width="3.626" height="3.626" fill="rgba(255,255,255,0.05)" rx="1.813" transform="matrix(0.866025 -0.5 0.866025 0.5 409.287 441.573)"/><rect width="3.626" height="3.626" fill="rgba(255,255,255,0.05)" rx="1.813" transform="matrix(0.866025 -0.5 0.866025 0.5 441.323 423.076)"/><rect width="5.439" height="5.439" fill="rgba(255,255,255,0.05)" rx="2.72" transform="matrix(0.866025 -0.5 0.866025 0.5 471.789 404.58)"/><rect width="5.439" height="5.439" fill="rgba(255,255,255,0.05)" rx="2.72" transform="matrix(0.866025 -0.5 0.866025 0.5 503.825 386.084)"/><rect width="7.253" height="7.253" fill="rgba(255,255,255,0.05)" rx="3.626" transform="matrix(0.866025 -0.5 0.866025 0.5 534.292 367.588)"/><rect width="9.066" height="9.066" fill="rgba(255,255,255,0.05)" rx="3.626" transform="matrix(0.866025 -0.5 0.866025 0.5 564.758 349.092)"/><rect width="10.879" height="10.879" fill="rgba(255,255,255,0.05)" rx="2.901" transform="matrix(0.866025 -0.5 0.866025 0.5 595.224 330.596)"/><rect width="9.066" height="9.066" fill="rgba(255,255,255,0.05)" rx="3.626" transform="matrix(0.866025 -0.5 0.866025 0.5 628.83 312.099)"/><rect width="7.253" height="7.253" fill="rgba(255,255,255,0.05)" rx="3.626" transform="matrix(0.866025 -0.5 0.866025 0.5 662.437 293.603)"/><rect width="5.439" height="5.439" fill="rgba(255,255,255,0.05)" rx="2.72" transform="matrix(0.866025 -0.5 0.866025 0.5 696.043 275.107)"/><rect width="5.439" height="5.439" fill="rgba(255,255,255,0.05)" rx="2.72" transform="matrix(0.866025 -0.5 0.866025 0.5 728.08 256.611)"/><rect width="3.626" height="3.626" fill="rgba(255,255,255,0.05)" rx="1.813" transform="matrix(0.866025 -0.5 0.866025 0.5 761.686 238.115)"/><rect width="3.626" height="3.626" fill="rgba(255,255,255,0.05)" rx="1.813" transform="matrix(0.866025 -0.5 0.866025 0.5 793.722 219.619)"/><rect width="3.626" height="3.626" fill="rgba(255,255,255,0.05)" rx="1.813" transform="matrix(0.866025 -0.5 0.866025 0.5 825.759 201.123)"/><rect width="3.626" height="3.626" fill="rgba(255,255,255,0.05)" rx="1.813" transform="matrix(0.866025 -0.5 0.866025 0.5 374.823 495.659)"/><rect width="3.626" height="3.626" fill="rgba(255,255,255,0.05)" rx="1.813" transform="matrix(0.866025 -0.5 0.866025 0.5 406.859 477.163)"/><rect width="3.626" height="3.626" fill="rgba(255,255,255,0.05)" rx="1.813" transform="matrix(0.866025 -0.5 0.866025 0.5 438.896 458.667)"/><rect width="3.626" height="3.626" fill="rgba(255,255,255,0.05)" rx="1.813" transform="matrix(0.866025 -0.5 0.866025 0.5 470.932 440.17)"/><rect width="3.626" height="3.626" fill="rgba(255,255,255,0.05)" rx="1.813" transform="matrix(0.866025 -0.5 0.866025 0.5 502.968 421.674)"/><rect width="3.626" height="3.626" fill="rgba(255,255,255,0.05)" rx="1.813" transform="matrix(0.866025 -0.5 0.866025 0.5 535.004 403.178)"/><rect width="5.439" height="5.439" fill="rgba(255,255,255,0.05)" rx="2.72" transform="matrix(0.866025 -0.5 0.866025 0.5 565.47 384.682)"/><rect width="7.253" height="7.253" fill="rgba(255,255,255,0.05)" rx="3.626" transform="matrix(0.866025 -0.5 0.866025 0.5 595.936 366.186)"/><rect width="9.066" height="9.066" fill="rgba(255,255,255,0.05)" rx="3.626" transform="matrix(0.866025 -0.5 0.866025 0.5 626.402 347.69)"/><rect width="7.253" height="7.253" fill="rgba(255,255,255,0.05)" rx="3.626" transform="matrix(0.866025 -0.5 0.866025 0.5 660.009 329.194)"/><rect width="5.439" height="5.439" fill="rgba(255,255,255,0.05)" rx="2.72" transform="matrix(0.866025 -0.5 0.866025 0.5 693.615 310.697)"/><rect width="3.626" height="3.626" fill="rgba(255,255,255,0.05)" rx="1.813" transform="matrix(0.866025 -0.5 0.866025 0.5 727.222 292.201)"/><rect width="3.626" height="3.626" fill="rgba(255,255,255,0.05)" rx="1.813" transform="matrix(0.866025 -0.5 0.866025 0.5 759.258 273.705)"/><rect width="3.626" height="3.626" fill="rgba(255,255,255,0.05)" rx="1.813" transform="matrix(0.866025 -0.5 0.866025 0.5 791.294 255.209)"/><rect width="3.626" height="3.626" fill="rgba(255,255,255,0.05)" rx="1.813" transform="matrix(0.866025 -0.5 0.866025 0.5 823.331 236.713)"/><rect width="3.626" height="3.626" fill="rgba(255,255,255,0.05)" rx="1.813" transform="matrix(0.866025 -0.5 0.866025 0.5 855.367 218.217)"/><rect width="3.626" height="3.626" fill="rgba(255,255,255,0.05)" rx="1.813" transform="matrix(0.866025 -0.5 0.866025 0.5 404.431 512.755)"/><rect width="3.626" height="3.626" fill="rgba(255,255,255,0.05)" rx="1.813" transform="matrix(0.866025 -0.5 0.866025 0.5 436.468 494.259)"/><rect width="3.626" height="3.626" fill="rgba(255,255,255,0.05)" rx="1.813" transform="matrix(0.866025 -0.5 0.866025 0.5 468.504 475.762)"/><rect width="3.626" height="3.626" fill="rgba(255,255,255,0.05)" rx="1.813" transform="matrix(0.866025 -0.5 0.866025 0.5 500.54 457.266)"/><rect width="3.626" height="3.626" fill="rgba(255,255,255,0.05)" rx="1.813" transform="matrix(0.866025 -0.5 0.866025 0.5 532.577 438.77)"/><rect width="3.626" height="3.626" fill="rgba(255,255,255,0.05)" rx="1.813" transform="matrix(0.866025 -0.5 0.866025 0.5 564.613 420.274)"/><rect width="5.439" height="5.439" fill="rgba(255,255,255,0.05)" rx="2.72" transform="matrix(0.866025 -0.5 0.866025 0.5 595.079 401.778)"/><rect width="7.253" height="7.253" fill="rgba(255,255,255,0.05)" rx="3.626" transform="matrix(0.866025 -0.5 0.866025 0.5 625.545 383.281)"/><rect width="7.253" height="7.253" fill="rgba(255,255,255,0.05)" rx="3.626" transform="matrix(0.866025 -0.5 0.866025 0.5 657.581 364.785)"/><rect width="7.253" height="7.253" fill="rgba(255,255,255,0.05)" rx="3.626" transform="matrix(0.866025 -0.5 0.866025 0.5 689.617 346.289)"/><rect width="5.439" height="5.439" fill="rgba(255,255,255,0.05)" rx="2.72" transform="matrix(0.866025 -0.5 0.866025 0.5 723.224 327.793)"/><rect width="3.626" height="3.626" fill="rgba(255,255,255,0.05)" rx="1.813" transform="matrix(0.866025 -0.5 0.866025 0.5 756.83 309.297)"/><rect width="3.626" height="3.626" fill="rgba(255,255,255,0.05)" rx="1.813" transform="matrix(0.866025 -0.5 0.866025 0.5 788.867 290.801)"/><rect width="3.626" height="3.626" fill="rgba(255,255,255,0.05)" rx="1.813" transform="matrix(0.866025 -0.5 0.866025 0.5 820.903 272.305)"/><rect width="3.626" height="3.626" fill="rgba(255,255,255,0.05)" rx="1.813" transform="matrix(0.866025 -0.5 0.866025 0.5 852.939 253.809)"/><rect width="3.626" height="3.626" fill="rgba(255,255,255,0.05)" rx="1.813" transform="matrix(0.866025 -0.5 0.866025 0.5 884.976 235.312)"/><rect width="3.626" height="3.626" fill="rgba(255,255,255,0.05)" rx="1.813" transform="matrix(0.866025 -0.5 0.866025 0.5 434.041 529.849)"/><rect width="3.626" height="3.626" fill="rgba(255,255,255,0.05)" rx="1.813" transform="matrix(0.866025 -0.5 0.866025 0.5 466.077 511.353)"/><rect width="3.626" height="3.626" fill="rgba(255,255,255,0.05)" rx="1.813" transform="matrix(0.866025 -0.5 0.866025 0.5 498.113 492.856)"/><rect width="3.626" height="3.626" fill="rgba(255,255,255,0.05)" rx="1.813" transform="matrix(0.866025 -0.5 0.866025 0.5 530.15 474.36)"/><rect width="3.626" height="3.626" fill="rgba(255,255,255,0.05)" rx="1.813" transform="matrix(0.866025 -0.5 0.866025 0.5 562.186 455.864)"/><rect width="3.626" height="3.626" fill="rgba(255,255,255,0.05)" rx="1.813" transform="matrix(0.866025 -0.5 0.866025 0.5 594.222 437.368)"/><rect width="3.626" height="3.626" fill="rgba(255,255,255,0.05)" rx="1.813" transform="matrix(0.866025 -0.5 0.866025 0.5 626.259 418.872)"/><rect width="3.626" height="3.626" fill="rgba(255,255,255,0.05)" rx="1.813" transform="matrix(0.866025 -0.5 0.866025 0.5 658.295 400.376)"/><rect width="5.439" height="5.439" fill="rgba(255,255,255,0.05)" rx="2.72" transform="matrix(0.866025 -0.5 0.866025 0.5 688.761 381.88)"/><rect width="3.626" height="3.626" fill="rgba(255,255,255,0.05)" rx="1.813" transform="matrix(0.866025 -0.5 0.866025 0.5 722.367 363.383)"/><rect width="3.626" height="3.626" fill="rgba(255,255,255,0.05)" rx="1.813" transform="matrix(0.866025 -0.5 0.866025 0.5 754.404 344.887)"/><rect width="3.626" height="3.626" fill="rgba(255,255,255,0.05)" rx="1.813" transform="matrix(0.866025 -0.5 0.866025 0.5 786.44 326.391)"/><rect width="3.626" height="3.626" fill="rgba(255,255,255,0.05)" rx="1.813" transform="matrix(0.866025 -0.5 0.866025 0.5 818.476 307.895)"/><rect width="3.626" height="3.626" fill="rgba(255,255,255,0.05)" rx="1.813" transform="matrix(0.866025 -0.5 0.866025 0.5 850.512 289.399)"/><rect width="3.626" height="3.626" fill="rgba(255,255,255,0.05)" rx="1.813" transform="matrix(0.866025 -0.5 0.866025 0.5 882.549 270.903)"/><rect width="3.626" height="3.626" fill="rgba(255,255,255,0.05)" rx="1.813" transform="matrix(0.866025 -0.5 0.866025 0.5 914.585 252.406)"/></svg>